# xmcd
#
# Track frame offsets: 
#        150
#        14712
#        28738
#        41510
#        55771
#        68827
#        82215
#        95983
#        109048
#        123051
#        135384
#        152878
#        162813
#        177365
#        192391
#        201693
#        213705
#        233527
#        244569
#        254095
#        266408
#
# Disc length: 3715 seconds
#
# Revision: 0
# Processed by: cddbd v1.5.1PL0 Copyright (c) Steve Scherf et al.
# Submitted via: ExactAudioCopy v0.95a5
#
DISCID=350e8115
DTITLE=Various Artist - Boogie Woogie Teacher
DYEAR=1900
DGENRE=Blues
TTITLE0=Music Conspiracy - Mess of Blues
TTITLE1=Blue Kings - Buzz buzz buzz
TTITLE2=Danny Wilson - The lonesome road
TTITLE3=Rockin' Louie - Real gone lover
TTITLE4=Jive Bugs - Morning Noon and Night
TTITLE5=Blue Kings - Meet me in uptown
TTITLE6=Rockin' Louie - Joops Jump
TTITLE7=Tyrone Hibbs - You better believe it
TTITLE8=Blue Kings - Cadillac Boogie
TTITLE9=Dana Gillespie - Heartbeat Boogie
TTITLE10=Roger and The Evolution - Endless Boogie
TTITLE11=Jean Vincent - Outta' my mind
TTITLE12=Savio Bellini - Hey Babba Lina
TTITLE13=The Gators - Boogie it out
TTITLE14=Mike Smith - I goz it
TTITLE15=Big Joe Louis - Rock'n'Roll Baby
TTITLE16=Jumpin' Jimes - Hello there Rock the joint
TTITLE17=Jumpin' Jimes - That's right
TTITLE18=Rockin' Louie - Troubles, Troubles
TTITLE19=Diz and the Doormen - What have I done to you?
TTITLE20=The Henhouse Five plus two - In the Moode Classical Cluck
EXTD=
EXTT0=
EXTT1=
EXTT2=
EXTT3=
EXTT4=
EXTT5=
EXTT6=
EXTT7=
EXTT8=
EXTT9=
EXTT10=
EXTT11=
EXTT12=
EXTT13=
EXTT14=
EXTT15=
EXTT16=
EXTT17=
EXTT18=
EXTT19=
EXTT20=
PLAYORDER=
